<svg aria-hidden="true" style="position: absolute; width: 0; height: 0; overflow: hidden;" version="1.1" xmlns="http://www.w3.org/2000/svg" xmlns:xlink="http://www.w3.org/1999/xlink">
<defs>
<symbol id="icon-key" viewBox="0 0 32 32">
<title>key</title>
<path d="M13.009 22l-1.5 1.5 2.5 2.5-3 3-2.5-2.5-1.875 1.875c-0.841 0.841-2.204 0.845-3.042 0.007l0.035 0.035c-0.837-0.837-0.835-2.2 0.007-3.042l12.157-12.157c-0.5-0.963-0.782-2.058-0.782-3.218 0-3.866 3.134-7 7-7s7 3.134 7 7c0 3.866-3.134 7-7 7-1.16 0-2.255-0.282-3.218-0.782v0l-2.782 2.782 2 2-3 3-2-2zM22.009 14c2.209 0 4-1.791 4-4s-1.791-4-4-4c-2.209 0-4 1.791-4 4s1.791 4 4 4v0z"></path>
</symbol>
<symbol id="icon-information" viewBox="0 0 32 32">
<title>information</title>
<path d="M16.5 29v0c-6.904 0-12.5-5.596-12.5-12.5s5.596-12.5 12.5-12.5c6.904 0 12.5 5.596 12.5 12.5s-5.596 12.5-12.5 12.5zM17 22v-7h-3v1h2v6h-2v1h5v-1h-2zM16.5 13c0.828 0 1.5-0.672 1.5-1.5s-0.672-1.5-1.5-1.5c-0.828 0-1.5 0.672-1.5 1.5s0.672 1.5 1.5 1.5v0z"></path>
</symbol>
<symbol id="icon-headphones" viewBox="0 0 32 32">
<title>headphones</title>
<path d="M30 18h-2v-4c0-6.625-5.375-12-12-12s-12 5.375-12 12v4h-2c-1.105 0-2 0.895-2 2v8c0 1.105 0.895 2 2 2h6v-16c0-4.414 3.586-8 8-8s8 3.586 8 8v16h6c1.105 0 2-0.895 2-2v-8c0-1.105-0.895-2-2-2z"></path>
</symbol>
<symbol id="icon-arrow-right-alt1" viewBox="0 0 32 32">
<title>arrow-right-alt1</title>
<path d="M0 16c0 8.836 7.164 16 16 16 8.837 0 16-7.164 16-16 0-8.837-7.163-16-16-16s-16 7.163-16 16zM24 16l-8 8v-6h-8v-4h8v-6l8 8z"></path>
</symbol>
<symbol id="icon-media-fast-forward" viewBox="0 0 24 24">
<title>media-fast-forward</title>
<path d="M15.053 6.912c-0.324-0.314-0.765-0.512-1.253-0.512-0.994 0-1.8 0.807-1.8 1.801v9c0 0.994 0.806 1.799 1.8 1.799 0.488 0 0.93-0.195 1.253-0.512 2.381-2.314 5.947-5.787 5.947-5.787s-3.566-3.474-5.947-5.789z"></path>
<path d="M6.053 6.912c-0.324-0.314-0.765-0.512-1.253-0.512-0.994 0-1.8 0.807-1.8 1.801v9c0 0.994 0.806 1.799 1.8 1.799 0.488 0 0.93-0.195 1.253-0.512 2.381-2.314 5.947-5.787 5.947-5.787s-3.566-3.474-5.947-5.789z"></path>
</symbol>
<symbol id="icon-media-play" viewBox="0 0 24 24">
<title>media-play</title>
<path d="M10.396 18.433c2.641-2.574 6.604-6.433 6.604-6.433s-3.963-3.859-6.604-6.433c-0.363-0.349-0.853-0.567-1.396-0.567-1.104 0-2 0.896-2 2v10c0 1.104 0.896 2 2 2 0.543 0 1.033-0.218 1.396-0.567z"></path>
</symbol>
<symbol id="icon-media-rewind" viewBox="0 0 24 24">
<title>media-rewind</title>
<path d="M10.2 6.4c-0.488 0-0.931 0.197-1.253 0.512-2.381 2.315-5.947 5.789-5.947 5.789s3.566 3.473 5.944 5.789c0.326 0.315 0.768 0.51 1.256 0.51 0.994 0 1.8-0.805 1.8-1.799v-9c0-0.994-0.806-1.801-1.8-1.801z"></path>
<path d="M19.2 6.4c-0.488 0-0.931 0.197-1.253 0.512-2.381 2.315-5.947 5.789-5.947 5.789s3.566 3.473 5.944 5.789c0.326 0.315 0.768 0.51 1.256 0.51 0.994 0 1.8-0.805 1.8-1.799v-9c0-0.994-0.806-1.801-1.8-1.801z"></path>
</symbol>
<symbol id="icon-media-pause" viewBox="0 0 24 24">
<title>media-pause</title>
<path d="M8 6c-1.104 0-2 0.896-2 2v8c0 1.104 0.896 2 2 2s2-0.896 2-2v-8c0-1.104-0.896-2-2-2z"></path>
<path d="M15 6c-1.104 0-2 0.896-2 2v8c0 1.104 0.896 2 2 2s2-0.896 2-2v-8c0-1.104-0.896-2-2-2z"></path>
</symbol>
</defs>
</svg>
